<?xml version="1.0" encoding="UTF-8" standalone="no"?> <svg width="24" height="24" viewBox="0 0 24 24" fill="none" xmlns="http://www.w3.org/2000/svg">
<path fill-rule="evenodd" clip-rule="evenodd" d="M4 3C3.44772 3 3 3.44772 3 4V16.5858L5.29289 14.2929C5.48043 14.1054 5.73478 14 6 14H16C16.5523 14 17 13.5523 17 13V4C17 3.44772 16.5523 3 16 3H4ZM1 4C1 2.34315 2.34315 1 4 1H16C17.6569 1 19 2.34315 19 4V7H20C21.6569 7 23 8.34315 23 10V20.5858C23 22.3676 20.8457 23.2599 19.5858 22L17.5858 20H10C8.34315 20 7 18.6569 7 17V16H6.41421L4.41421 18C3.15429 19.2599 1 18.3676 1 16.5858V4ZM9 16V17C9 17.5523 9.44772 18 10 18H18C18.2652 18 18.5196 18.1054 18.7071 18.2929L21 20.5858V10C21 9.44772 20.5523 9 20 9H19V13C19 14.6569 17.6569 16 16 16H9ZM5 7C5 6.44772 5.44772 6 6 6H9C9.55228 6 10 6.44772 10 7C10 7.55228 9.55228 8 9 8H6C5.44772 8 5 7.55228 5 7ZM5 11C5 10.4477 5.44772 10 6 10H14C14.5523 10 15 10.4477 15 11C15 11.5523 14.5523 12 14 12H6C5.44772 12 5 11.5523 5 11Z" fill="#293644"/>
</svg>
